<svg width="214" height="48" viewBox="0 0 214 48" fill="none" xmlns="http://www.w3.org/2000/svg">
<g clip-path="url(#clip0_132_1197)">
<path d="M4.80224 14.6542C4.40118 17.2452 2.79956 19.089 0 20.1869V20.0374C1.5007 19.1402 2.40112 18.1914 2.70126 17.1963C1.29886 17.295 0.45021 17.5447 0.15007 17.9439C0.349288 16.7477 0.698576 15.8994 1.20056 15.4019C1.39978 15.2011 2.60034 14.9533 4.80224 14.6542ZM77.4362 22.5794C77.4362 24.0748 77.136 25.369 76.5358 26.4665C75.9355 27.7615 75.0351 28.4108 73.8345 28.4108C73.0328 28.4108 72.4325 28.3589 72.0337 28.2617C72.0337 28.7593 72.0337 29.2568 72.0337 29.757C72.0337 31.7499 71.7827 32.9951 71.2833 33.4953C67.2806 38.0793 63.5288 40.3738 60.028 40.3738C58.5273 40.3738 57.3759 39.6751 56.5764 38.28C55.8752 37.1817 55.5259 35.9361 55.5259 34.5417C55.5259 32.2471 56.0744 29.4064 57.1767 26.0183C55.9762 26.9151 53.9735 28.7589 51.1739 31.551C48.0716 34.5417 45.8205 36.6355 44.4208 37.8314C41.8178 39.8247 39.7168 40.8221 38.1178 40.8221C36.9172 40.8221 35.8668 40.2475 34.9663 39.1024C34.0659 37.9555 33.6157 36.6348 33.6157 35.1394C33.6157 33.3447 34.216 31.0505 35.4165 28.2613C35.2147 28.3593 34.9663 28.4105 34.6662 28.4105C33.965 28.4105 33.3647 28.3585 32.8654 28.2613C32.8654 28.7589 32.8654 29.2564 32.8654 29.7566C32.8654 31.7495 32.6635 32.9454 32.2651 33.3454C27.5611 37.9297 23.7602 40.2239 20.8597 40.2239C19.359 40.2239 18.2076 39.6254 17.4081 38.4288C16.6064 37.2333 16.2076 35.7869 16.2076 34.0923C16.2076 33.4942 16.4559 32.172 16.9579 30.1297C17.4573 28.0849 17.7083 26.3166 17.7083 24.8213C17.7083 23.625 17.5582 22.4774 17.2581 21.3821C16.0575 21.083 14.8569 20.2348 13.6564 18.84C12.4558 17.443 11.6541 16.7462 11.2553 16.7462C10.7536 16.7462 9.95378 17.5925 8.85414 19.2886C8.05201 20.5828 7.35344 21.8796 6.75316 23.1761C9.05335 24.3723 10.2048 26.9634 10.2048 30.9514H9.45442C8.35253 30.4531 7.30166 29.9065 6.30294 29.3084C5.30198 28.6101 4.80224 27.563 4.80224 26.1686C2.49979 27.2647 1.35063 28.76 1.35063 30.6546C1.35063 30.8531 2.32609 33.145 4.277 37.5327C6.22791 41.9178 7.20337 45.4067 7.20337 48H6.90323C6.70138 46.4037 5.55259 43.4624 3.45161 39.1768C1.54985 35.1892 0.60028 32.2991 0.60028 30.5047C0.60028 27.911 2.15013 25.5185 5.25245 23.3271C5.65127 22.0303 6.65223 20.2852 8.25386 18.0935C10.0547 15.4998 11.504 14.2056 12.6059 14.2056C13.0047 14.2056 13.9565 15.1028 15.4572 16.8972C15.2554 16.397 15.1571 15.8994 15.1571 15.4019C15.1571 14.105 15.6073 13.0093 16.5077 12.1122C17.4081 11.215 18.5078 10.766 19.8093 10.766C20.8083 10.766 22.7593 11.2385 25.662 12.1869C28.5625 13.1327 31.1137 13.6075 33.3156 13.6075L31.5147 16.5981C30.1127 16.7966 27.8616 17.6938 24.7616 19.2897C22.0603 20.6841 19.8093 21.3832 18.0084 21.3832C17.9075 21.3832 17.7083 21.3832 17.4081 21.3832C17.9079 22.7779 18.1585 24.2733 18.1585 25.8692C18.1585 27.1637 17.9825 28.6101 17.6332 30.2056C17.2813 31.8 17.108 32.6965 17.108 32.8976C17.108 36.0867 18.4069 37.6822 21.0098 37.6822C22.9093 37.6822 25.1109 36.6849 27.6129 34.6916C29.2119 33.3948 30.7126 32.0497 32.115 30.6546C32.115 29.9559 31.7139 28.8598 30.9144 27.3645C30.5134 26.4673 30.0632 25.5701 29.5638 24.6733L30.6143 22.1312C31.5147 23.526 32.1642 24.4722 32.5652 24.972C33.2642 25.6684 34.0145 26.0194 34.8163 26.0194C35.8154 26.0194 36.6171 25.6202 37.2174 24.8232C37.2174 23.3279 37.1165 21.8815 36.9173 20.4864L34.3661 4.63626C34.2651 3.64075 34.0659 2.89308 33.7658 2.39327L34.5161 0.299439L37.2174 5.23364V6.13084L35.8668 4.78505C35.7658 4.98617 35.7658 5.18467 35.8668 5.38355L38.1178 20.486C38.2161 20.8834 38.2679 21.5824 38.2679 22.5798C38.2679 25.5705 37.4658 27.4138 35.8668 28.1125C34.8654 30.3043 34.3661 32.2482 34.3661 33.9443C34.3661 34.8415 34.7153 35.6875 35.4165 36.4871C36.216 37.3839 37.166 37.8329 38.2679 37.8329C40.0687 37.8329 42.3689 36.4871 45.1711 33.7955C47.6709 31.5009 50.1729 29.1604 52.6746 26.7675C54.5741 25.1708 56.4264 23.8258 58.2272 22.7297C57.7252 22.5293 56.9749 21.9821 55.9762 21.0852C54.5737 19.9869 53.8752 18.7413 53.8752 17.3469C53.8752 15.0527 55.1249 13.9077 57.6269 13.9077C62.4292 13.9077 67.6302 14.7533 73.2342 16.4497L71.2833 19.4404C69.4825 20.0389 66.2301 21.3331 61.5287 23.3282C62.0281 24.1252 62.5792 26.0198 63.1795 29.0105C60.4783 29.0105 59.1276 28.2108 59.1276 26.6179C59.1276 26.4172 59.1768 26.0688 59.2777 25.5712C59.3764 25.0714 59.4278 24.7226 59.4278 24.5245C59.0267 24.8236 58.4268 25.2202 57.6269 25.72C56.6256 28.9092 56.1262 31.3024 56.1262 32.8979C56.1262 36.0871 57.4769 37.6826 60.1781 37.6826C63.0786 37.6826 66.7812 35.3394 71.2833 30.655C71.1824 29.9563 70.7817 28.8602 70.0827 27.3649C69.5811 26.566 69.1309 25.72 68.7321 24.8228L69.6325 22.1312C70.533 23.6265 71.2315 24.5727 71.7335 24.972C72.3338 25.6684 73.0841 26.0194 73.9846 26.0194C74.9833 26.0194 75.7854 25.6202 76.3857 24.8232C76.2848 23.3279 76.1347 21.8815 75.9355 20.4864L73.5344 4.78542C73.3325 3.68972 73.1333 2.89271 72.9341 2.39327L73.6844 0.299439L76.2356 5.23402V6.13121L75.0351 4.78505C74.9341 5.08449 74.9341 5.33458 75.0351 5.53271L77.2861 20.486C77.3848 20.883 77.4362 21.5817 77.4362 22.5794ZM10.3548 9.27103C10.3548 10.9649 9.80371 11.8135 8.70407 11.8135C7.70272 11.8135 7.20337 11.2639 7.20337 10.1686C7.20337 9.46991 7.35344 8.6243 7.65358 7.62654C8.25386 6.43028 8.554 5.73383 8.554 5.53271C8.75321 6.33234 8.80274 6.87888 8.70407 7.17757C9.80371 7.7757 10.3548 8.47439 10.3548 9.27103ZM9.90463 9.86916C9.50357 9.36935 8.90366 9.02056 8.10379 8.82243C7.70272 9.21981 7.50351 9.46916 7.50351 9.57009C7.50351 10.1682 7.85279 10.4673 8.554 10.4673C9.05335 10.4673 9.50357 10.2662 9.90463 9.86916ZM13.9565 34.5421L12.906 36.1862C12.3058 36.3847 11.6541 36.535 10.9551 36.6351C9.85285 37.0325 9.30435 37.4811 9.30435 37.9813C9.80408 39.9742 10.0547 41.3693 10.0547 42.1679C10.0547 43.9626 10.0033 45.0093 9.90463 45.3077C9.90463 44.2093 9.70278 42.7656 9.30435 40.9712C8.90366 39.1761 8.70407 38.0295 8.70407 37.532C8.70407 36.6351 9.02747 36.0366 9.67952 35.7376C10.329 35.4378 10.9551 35.188 11.5554 34.9899C11.1547 34.6901 10.805 34.5413 10.5049 34.5413L9.60449 35.289V34.5413C9.90463 34.1417 10.153 33.7679 10.3548 33.4198C10.5541 33.0692 10.805 32.8968 11.1052 32.8968C11.7055 32.8972 12.655 33.4437 13.9565 34.5421ZM15.1571 27.0654L13.9565 29.4572L11.4053 28.2617L12.3057 26.1682L10.0547 24.9716L11.1052 22.5798L13.8065 23.7761L12.756 25.8692L15.1571 27.0654ZM27.913 15.5514C27.3128 15.4505 25.9107 15.1028 23.7111 14.5043C21.9102 13.9065 20.5078 13.6075 19.5091 13.6075C17.2063 13.6075 16.0575 14.4535 16.0575 16.1495C16.0575 16.8456 16.3062 17.5443 16.8079 18.243C17.2067 18.6404 17.7083 18.8415 18.3086 18.8415C19.7083 18.8415 21.31 18.4419 23.1108 17.6452C26.0113 16.348 27.6129 15.6493 27.913 15.5514ZM29.2637 26.9159C27.763 30.7032 25.8612 32.5981 23.561 32.5981C21.8588 32.5981 21.0098 31.7993 21.0098 30.2056C21.0098 28.9088 22.1095 27.5637 24.3114 26.1686C23.9107 25.8692 23.5096 25.7196 23.1108 25.7196C22.6092 25.7196 22.1095 25.9675 21.6101 26.4673V25.8692C22.1095 24.7708 22.8107 24.2243 23.7111 24.2243C25.2118 24.2243 26.4123 24.4228 27.3128 24.8232L25.5119 26.4669C24.8107 26.6654 24.0345 27.1144 23.1858 27.8135C22.3346 28.5095 21.9102 29.1077 21.9102 29.6078C21.9102 30.505 22.7097 30.9536 24.3114 30.9536C25.4114 30.9536 26.511 30.3555 27.6129 29.1596C28.1123 28.3596 28.6634 27.612 29.2637 26.9159ZM31.9649 6.57944C31.9649 7.77533 31.5639 8.37383 30.7644 8.37383C30.3633 8.37383 29.9623 8.17533 29.5638 7.77533C29.2637 8.57495 28.8135 8.97159 28.2132 8.97159C27.512 8.97159 27.1627 8.52299 27.1627 7.62579C27.1627 7.02729 27.1627 6.42953 27.1627 5.8314C26.9608 6.03252 26.7125 6.33121 26.4123 6.72822V6.13009C26.6116 5.63252 27.1113 4.98505 27.913 4.18617C27.6129 6.27963 27.8121 7.32635 28.5133 7.32635C29.0127 7.32635 29.2637 6.97794 29.2637 6.27925C29.2637 5.98019 29.1627 5.38243 28.9635 4.48486L29.4137 3.58879C29.7139 4.0886 29.9135 4.83626 30.014 5.83178C30.014 6.53047 30.2628 6.8785 30.7644 6.8785C31.0645 6.8785 31.2146 6.63065 31.2146 6.13084L30.7644 4.18692L31.3647 3.14019C31.7635 4.43701 31.9649 5.5843 31.9649 6.57944ZM40.5189 32.2991C40.418 33.6935 39.9187 34.3929 39.0182 34.3929C38.1178 34.3929 37.6676 33.9439 37.6676 33.0467C37.6676 31.7499 38.3666 30.2546 39.7686 28.5607C39.0674 30.1544 38.7181 31.3013 38.7181 32C38.7181 32.6957 38.9665 33.0467 39.4684 33.0467C39.9678 33.0467 40.2679 32.7966 40.3689 32.2991H40.5189ZM43.5203 23.6262C43.5203 25.7193 43.2693 27.3133 42.77 28.4112H42.4698C42.5681 26.2172 42.4698 23.9252 42.1697 21.5331L39.4684 4.63589C39.3675 3.64037 39.1683 2.89271 38.8682 2.3929L39.6185 0.299065L42.1697 5.23364V6.13084L40.9691 4.78467C40.8682 4.98579 40.8682 5.1843 40.9691 5.38318L43.3703 21.3832C43.4686 21.8807 43.5203 22.6284 43.5203 23.6262ZM50.2735 4.93458C50.2735 5.33383 50.1234 5.78318 49.8233 6.28037C49.5231 5.98131 49.2721 5.83215 49.0729 5.83215C48.5713 5.83215 48.1725 6.53084 47.8724 7.92561C47.6705 8.8228 47.5205 9.81832 47.4222 10.9163C47.122 10.117 46.6204 9.07028 45.9215 7.77607C45.8205 8.27664 45.5204 8.52374 45.021 8.52374C44.2189 8.52374 43.8205 8.07551 43.8205 7.17794C43.8205 6.08187 44.1701 5.53308 44.871 5.53308C45.7714 5.53308 46.5709 6.58019 47.2721 8.67327C47.8724 5.08449 48.6227 3.29009 49.5231 3.29009C50.0225 3.28972 50.2735 3.83888 50.2735 4.93458ZM50.4236 13.3084C50.0225 15.9996 48.4726 17.8434 45.7714 18.8411L45.6213 18.6916C47.122 17.7948 48.0224 16.8456 48.3226 15.8505C46.9205 15.9488 46.0715 16.1985 45.7714 16.5981C45.9706 15.4019 46.3199 14.5536 46.8219 14.0561C47.0211 13.8553 48.2217 13.6075 50.4236 13.3084ZM50.2735 22.5794L49.0729 24.9712L46.5217 23.7757L47.7223 21.3832L50.2735 22.5794ZM52.9748 38.5794C52.9748 39.9742 52.4728 40.6733 51.474 40.6733C50.5736 40.6733 50.1234 40.225 50.1234 39.3271C50.1234 38.0303 50.822 36.535 52.2244 34.8411H52.3745C51.5723 36.4348 51.1739 37.5821 51.1739 38.2804C51.1739 38.9765 51.4226 39.3271 51.9243 39.3271C52.424 39.3271 52.7238 39.0774 52.8247 38.5794H52.9748ZM55.676 6.57944C55.676 7.77533 55.4254 9.1215 54.9257 10.6168C55.0243 9.81794 55.0757 8.92299 55.0757 7.92523C55.0757 6.13084 54.5246 4.73607 53.425 3.73832L53.575 1.94393C54.274 2.34318 54.7992 3.04224 55.1508 4.03738C55.5001 5.03514 55.676 5.88299 55.676 6.57944ZM68.1318 18.3925C65.3297 17.1963 62.0773 16.5981 58.3773 16.5981C56.5764 16.5981 55.3759 16.7966 54.7756 17.1963C54.7756 17.3948 55.425 17.9675 56.7265 18.9163C58.0254 19.8621 59.1276 20.7854 60.028 21.6822C62.129 20.6845 64.8303 19.5888 68.1318 18.3925ZM71.4334 1.49533C71.4334 2.09383 71.2574 2.79252 70.9081 3.58916C70.5562 4.38804 70.1319 4.98579 69.6325 5.38355C70.2328 4.18729 70.533 3.34168 70.533 2.8415C65.4306 4.43738 60.7784 7.12897 56.5764 10.9163C56.6751 10.4161 56.7757 9.9185 56.8766 9.42093C58.5765 7.7271 60.8534 6.13122 63.7048 4.63589C66.5561 3.14019 69.1309 2.09346 71.4334 1.49533ZM67.6816 27.8131C67.8808 28.6101 67.6816 29.0583 67.0813 29.1593C66.7812 29.2576 66.331 29.0583 65.7307 28.5607C65.3297 29.2568 64.6802 30.2049 63.7798 31.4022C62.6775 32.6964 61.2286 33.4961 59.4278 33.7944L58.0771 34.0935C59.4769 33.3948 61.0271 32.3974 62.7293 31.1028C64.1291 30.0045 65.0787 28.9088 65.5806 27.8131C65.9795 27.0138 66.331 26.5656 66.6311 26.4665C67.1305 26.3671 67.4798 26.8153 67.6816 27.8131ZM68.8822 10.0187C68.8822 11.215 68.4811 11.8135 67.6816 11.8135C67.2806 11.8135 66.8799 11.5634 66.4811 11.0658C66.1809 11.8624 65.7307 12.2617 65.1304 12.2617C64.5302 12.2617 64.1782 11.8628 64.0799 11.0658C64.0799 10.3671 64.0799 9.71963 64.0799 9.12187C63.8785 9.42093 63.6793 9.72 63.4797 10.0187V9.57009C63.578 9.07028 64.0282 8.42505 64.8303 7.62617C64.5302 9.61944 64.7294 10.6168 65.4306 10.6168C65.9303 10.6168 66.1809 10.3178 66.1809 9.71963C66.1809 9.42056 66.08 8.77383 65.8808 7.7757L66.4811 7.02804C66.6803 7.42766 66.8304 8.12635 66.9313 9.12187C66.9313 9.81832 67.18 10.1686 67.6816 10.1686C67.9818 10.1686 68.1318 9.96748 68.1318 9.57047C68.1318 9.46953 67.9818 8.8228 67.6816 7.62654L68.2819 6.43028C68.6807 7.72673 68.8822 8.92299 68.8822 10.0187ZM67.3815 28.2617C66.9804 27.6632 66.5302 27.514 66.0309 27.8131C66.6311 28.2101 67.0813 28.3596 67.3815 28.2617ZM81.0379 34.3925C81.0379 35.3877 80.7377 35.8879 80.1374 35.8879C79.7364 35.8879 79.2862 35.7387 78.7868 35.4389C77.0843 38.5286 73.9328 40.0239 69.3324 39.9249H69.1823V39.7757C73.6844 38.6774 76.735 37.1331 78.3366 35.1406C77.835 34.9394 77.5863 34.6404 77.5863 34.2437C77.5863 33.9439 77.7363 33.594 78.0365 33.1963C78.3366 32.7974 78.585 32.5981 78.7868 32.5981L78.6367 32L78.7868 31.8505C78.986 31.8505 79.3353 32.049 79.8373 32.4486V32.5981C80.6368 33.4953 81.0379 34.0935 81.0379 34.3925ZM82.6886 23.6262C82.6886 25.7193 82.438 27.3133 81.9383 28.4112H81.6381C81.7364 26.2172 81.5864 23.9252 81.1879 21.5331L78.6367 4.63589C78.4349 3.64037 78.2357 2.89271 78.0365 2.3929L78.7868 0.299065L81.338 5.23364V6.13084L80.1374 4.78467C80.0365 4.98579 79.9874 5.1843 79.9874 5.38318L82.5386 21.3832C82.6372 21.8807 82.6886 22.6284 82.6886 23.6262ZM79.3871 33.6449C79.3871 33.4437 79.2862 33.3454 79.087 33.3454C78.6863 33.3454 78.3857 33.495 78.1865 33.794C78.3857 34.0931 78.6863 34.2916 79.087 34.3925C79.087 34.2916 79.1361 34.1679 79.237 34.0187C79.3353 33.8692 79.3871 33.7428 79.3871 33.6449ZM214 28.1121C214 29.5069 213.674 30.6546 213.024 31.5514C212.372 32.4479 211.648 32.8972 210.848 32.8972C209.347 32.8972 208.297 31.9484 207.697 30.0557C207.296 31.9484 206.445 32.8972 205.145 32.8972C203.945 32.8972 203.143 32.0976 202.745 30.505C201.943 32.3978 200.543 33.3462 198.543 33.3462C197.842 33.3462 197.268 33.0707 196.817 32.5241C196.367 31.975 196.141 31.3507 196.141 30.655C196.141 30.3555 196.141 30.1058 196.141 29.9073C182.035 34.2923 167.628 36.4871 152.921 36.4871C145.816 36.4871 138.864 35.8886 132.061 34.692C125.557 33.6946 120.705 32.3488 117.505 30.655C117.505 32.0493 117.452 33.4445 117.354 34.8415H117.055C115.854 34.0426 115.104 33.0964 114.804 32.0004C114.703 31.2007 114.628 30.4531 114.579 29.7574C114.526 29.0587 113.902 28.7099 112.703 28.7099C111.6 28.7099 109.725 30.3043 107.075 33.4957C104.423 36.6845 102.397 38.2807 100.997 38.2807C100.195 38.2807 99.4965 37.9069 98.8962 37.1593C98.2959 36.4116 97.9958 35.3884 97.9958 34.0938C97.9958 33.3951 98.1459 32.5473 98.446 31.5518C97.9444 31.7503 97.445 31.8508 96.9453 31.8508C94.943 31.8508 93.6438 30.505 93.0435 27.8135C92.8416 31.1032 91.3409 32.748 88.5414 32.748C87.3408 32.748 86.4404 32.0983 85.8401 30.8041C85.4394 29.8064 85.289 28.6594 85.3899 27.3649C85.3899 27.1641 85.4882 26.4677 85.69 25.2714C85.7887 24.2736 85.8401 23.3764 85.8401 22.5798C85.1389 23.5753 84.6395 24.8722 84.3394 26.4669C84.1379 27.5634 83.9387 28.6587 83.7391 29.7574C83.3381 31.5518 82.6886 32.4482 81.7882 32.4482C81.087 32.4482 80.4867 31.874 79.9874 30.7286C79.4854 29.5817 79.237 28.3593 79.237 27.065C79.237 25.668 79.3353 24.1237 79.5372 22.4295L79.8373 22.5791C79.7364 23.3757 79.6872 24.1727 79.6872 24.9708C79.6872 28.3589 80.3862 30.0557 81.7882 30.0557C82.2876 30.0557 82.7378 29.308 83.1388 27.8127C83.8374 25.3196 84.2385 23.8733 84.3394 23.4759C85.0384 21.7802 85.9388 20.6348 87.0407 20.037V21.9806C86.6396 24.572 86.4404 26.1679 86.4404 26.766C86.4404 28.957 87.2399 30.0557 88.8415 30.0557C89.8406 30.0557 90.7174 29.6561 91.4677 28.8594C92.2181 28.0606 92.5933 27.1144 92.5933 26.0183L91.5428 20.1869L92.2931 18.0935C92.7925 19.089 93.0926 19.8879 93.1935 20.4856C93.4937 22.1794 93.742 23.9249 93.9439 25.7193C94.5442 28.2101 95.6438 29.4576 97.2454 29.4576C98.2442 29.4576 98.9454 29.0587 99.3464 28.2621C98.8448 27.1637 98.3454 26.068 97.8457 24.9716C97.1445 23.1776 96.7435 21.7806 96.6452 20.7854L96.1949 19.7383L96.7952 17.6449L98.8962 20.9346V21.6822C98.5961 21.4811 98.2959 21.2336 97.9958 20.9346C97.8949 21.1331 97.8949 21.2336 97.9958 21.2336C99.3956 24.4228 100.097 26.6168 100.097 27.8135C100.097 29.6079 99.6961 30.8041 98.8962 31.4026C98.5961 32.3978 98.446 33.1454 98.446 33.6456C98.446 35.04 99.145 35.7394 100.547 35.7394C101.846 35.7394 103.797 34.1178 106.4 30.8796C109 27.6389 111.052 26.0198 112.553 26.0198C113.052 26.0198 113.753 26.3189 114.654 26.9166L115.404 25.1219C116.804 27.1148 120.957 28.9578 127.86 30.6542C135.762 32.4482 144.818 33.3454 155.022 33.3454C161.925 33.3454 169.527 32.7473 177.833 31.551C185.036 30.4527 191.539 29.1069 197.342 27.5136C197.141 27.8127 197.042 28.16 197.042 28.5604C197.042 29.1589 197.241 29.7054 197.642 30.2045C198.041 30.7024 198.491 30.9521 198.994 30.9521C199.992 30.9521 201.043 30.4523 202.144 29.4568L204.095 27.514L204.245 27.6636C204.245 27.8621 204.245 28.0609 204.245 28.2621C204.245 29.6561 204.745 30.3555 205.746 30.3555C206.245 30.3555 206.797 29.9073 207.396 29.0097C208.095 27.8135 208.597 27.1151 208.897 26.9159H209.047C209.047 27.1144 209.047 27.3133 209.047 27.5144C209.047 28.311 209.321 29.0333 209.872 29.6826C210.421 30.3293 210.946 30.6546 211.448 30.6546C212.447 30.6546 212.949 30.2553 212.949 29.4579C212.949 28.5615 212.198 26.7671 210.698 24.0755C209.096 21.1832 208.245 19.44 208.146 18.8419C208.046 18.6407 207.896 18.3671 207.696 18.0194C207.495 17.6688 207.396 17.4445 207.396 17.3465L207.846 15.1036L210.848 18.2434V18.8411L209.497 18.2426V18.5421C210.297 19.7379 211.096 20.9342 211.898 22.1308C213.299 24.6213 214 26.6168 214 28.1121ZM80.5877 34.8411C80.3862 34.6404 80.086 34.292 79.6872 33.7944L79.3871 34.5421C79.6872 34.7406 79.9874 34.8411 80.2875 34.8411C80.3862 34.8411 80.4867 34.8411 80.5877 34.8411ZM98.446 0C98.446 0.499813 98.2441 1.14729 97.8457 1.94393C97.445 2.7428 97.044 3.39028 96.6452 3.88785C97.2454 2.69159 97.5456 1.79402 97.5456 1.19626C91.3409 3.1914 86.0885 6.13084 81.7882 10.0187C81.7882 9.51888 81.8869 8.97196 82.0884 8.37421C83.7883 6.78093 86.389 5.08449 89.892 3.28972C93.1935 1.59589 96.0449 0.499813 98.446 0ZM92.1431 34.9907C92.1431 35.4882 91.9412 35.9858 91.5428 36.486C91.3409 36.1862 91.0926 36.0374 90.7924 36.0374C90.2908 36.0374 89.892 36.6841 89.5919 37.9813C89.4909 38.9764 89.3412 39.9742 89.1417 40.972C88.9398 40.2733 88.4405 39.2265 87.641 37.8318C87.54 38.4299 87.289 38.729 86.8906 38.729C85.9902 38.729 85.54 38.2288 85.54 37.2336C85.54 36.2359 85.9388 35.7383 86.7405 35.7383C87.54 35.7383 88.3395 36.785 89.1417 38.8781C89.641 35.289 90.3914 33.4953 91.3927 33.4953C91.8921 33.4953 92.1431 33.9929 92.1431 34.9907ZM92.4432 12.8598C92.4432 14.0561 91.993 14.6542 91.0926 14.6542C90.7924 14.6542 90.3914 14.4041 89.892 13.9065C89.6902 14.7032 89.2399 15.1028 88.5414 15.1028C87.9411 15.1028 87.5892 14.7032 87.4909 13.9065C87.4909 13.2079 87.4909 12.5607 87.4909 11.9626C87.289 12.2617 87.0898 12.5611 86.8906 12.8598V12.2617C87.0898 11.8628 87.54 11.2643 88.2412 10.4673C88.0394 12.4602 88.2412 13.4579 88.8415 13.4579C89.3412 13.4579 89.5919 13.1073 89.5919 12.4112C89.5919 12.2101 89.4909 11.612 89.2917 10.6168L89.892 9.86916C90.1921 10.2665 90.3422 10.9649 90.3422 11.9626C90.4409 12.6587 90.741 13.0093 91.2426 13.0093C91.5428 13.0093 91.6928 12.809 91.6928 12.4112C91.6928 12.3107 91.5428 11.6636 91.2426 10.4673L91.6928 9.27103C92.1922 10.5656 92.4432 11.7615 92.4432 12.8598ZM96.1949 11.215C96.1949 12.4112 95.9443 13.757 95.4446 15.2523C95.5433 14.4535 95.5947 13.5566 95.5947 12.5611C95.5947 10.7664 95.0435 9.36935 93.9439 8.37421L94.094 6.43028C94.6942 6.93009 95.194 7.67776 95.5947 8.67327C95.9931 9.66804 96.1949 10.5163 96.1949 11.215ZM104.299 23.6262C104.299 25.7193 104.097 27.3133 103.698 28.4112H103.398C103.497 26.2172 103.347 23.9252 102.948 21.5331L100.397 4.63589C100.195 3.64037 99.9958 2.89271 99.7966 2.3929L100.547 0.299065L103.098 5.23364V6.13084L101.898 4.78467C101.797 4.98579 101.748 5.1843 101.748 5.38318L104.299 21.3832C104.299 21.8807 104.299 22.6284 104.299 23.6262ZM113.903 33.9436C114.002 34.8408 113.802 35.3387 113.303 35.4389C113.003 35.4389 112.501 35.2385 111.802 34.8407C111.402 35.5372 110.801 36.4344 110.001 37.5323C108.801 38.8265 107.3 39.6744 105.499 40.0744L104.299 40.2239C105.598 39.6254 107.099 38.6766 108.801 37.3824C110.302 36.1858 111.3 35.0385 111.802 33.9428C112.201 33.1439 112.501 32.6953 112.703 32.597C113.202 32.5981 113.603 33.0467 113.903 33.9436ZM113.003 7.17757C113.003 7.57682 112.853 8.02617 112.553 8.52336C112.252 8.2243 112.001 8.07514 111.802 8.07514C111.3 8.07514 110.902 8.72411 110.602 10.0187C110.4 11.1151 110.25 12.1125 110.152 13.0093C109.95 12.311 109.451 11.3136 108.651 10.0187C108.55 10.5166 108.25 10.7664 107.751 10.7664C106.949 10.7664 106.551 10.3181 106.551 9.42056C106.551 8.32449 106.9 7.7757 107.601 7.7757C108.501 7.7757 109.301 8.8228 110.002 10.9159C110.602 7.3271 111.353 5.53271 112.253 5.53271C112.752 5.53271 113.003 6.08187 113.003 7.17757ZM113.453 15.4019L112.402 17.0467C111.801 17.2449 111.15 17.4441 110.451 17.6449C109.349 17.9439 108.801 18.3925 108.801 18.9907C109.3 20.8834 109.551 22.2292 109.551 23.0284C109.551 24.8228 109.499 25.8695 109.401 26.1682C109.401 25.0699 109.2 23.6497 108.801 21.9069C108.401 20.1615 108.2 19.04 108.2 18.5424C108.2 17.5447 108.524 16.8976 109.176 16.5985C109.825 16.2994 110.451 16.0493 111.052 15.8508C110.55 15.6497 110.152 15.5518 109.851 15.5518C109.95 15.5518 109.65 15.7499 108.952 16.1499L109.101 15.4022C109.3 15.1032 109.526 14.7293 109.777 14.2807C110.025 13.8321 110.302 13.6079 110.602 13.6079C111.202 13.6075 112.152 14.2056 113.453 15.4019ZM113.603 34.3925C113.203 33.794 112.752 33.6449 112.252 33.9436C112.752 34.3409 113.202 34.4905 113.603 34.3925ZM116.755 30.3551C116.454 30.1544 116.004 29.7058 115.403 29.0093C115.403 29.5069 115.528 30.0789 115.778 30.729C116.027 31.3761 116.304 31.7009 116.604 31.7009C116.703 31.7006 116.755 31.2523 116.755 30.3551ZM193.891 36.6355C193.389 36.6355 193.039 36.3361 192.84 35.7387C192.139 36.6355 191.489 37.0845 190.889 37.0845C190.688 37.0845 190.365 36.935 189.914 36.6363C189.464 36.3364 189.187 36.1869 189.088 36.1869C188.586 36.1869 187.637 36.4867 186.237 37.0841C184.435 37.8807 182.984 38.4789 181.884 38.8789C179.683 39.5746 177.281 39.9252 174.681 39.9252L174.532 39.6262C176.731 39.6262 178.932 39.1772 181.135 38.28C182.335 37.8804 184.035 37.0837 186.238 35.8879C187.837 34.991 188.988 34.5417 189.689 34.5417C189.888 34.5417 190.188 34.7402 190.589 35.1402C190.988 35.5376 191.339 35.7387 191.64 35.7387C192.038 35.7387 192.489 35.2385 192.991 34.2434L193.44 33.9436C193.339 34.7409 193.59 35.1402 194.191 35.1402C194.492 35.1402 194.792 34.64 195.091 33.6449L195.391 33.4957C195.391 35.5888 194.89 36.6355 193.891 36.6355ZM205.746 9.42056C205.746 9.81794 205.544 10.3178 205.145 10.9159C204.845 10.5163 204.594 10.3178 204.395 10.3178C203.893 10.3178 203.495 11.0135 203.194 12.4112C203.093 13.3084 202.944 14.2546 202.745 15.2523C202.444 14.554 201.942 13.5566 201.244 12.2617C201.142 12.7596 200.843 13.0093 200.344 13.0093C199.541 13.0093 199.143 12.5611 199.143 11.6636C199.143 10.5652 199.493 10.0187 200.194 10.0187C201.094 10.0187 201.893 11.0658 202.595 13.1589C203.195 9.57009 203.945 7.7757 204.846 7.7757C205.446 7.7757 205.746 8.32486 205.746 9.42056ZM204.546 20.9346C204.546 22.729 203.994 23.6262 202.895 23.6262C201.893 23.6262 201.394 23.077 201.394 21.9813C201.394 21.283 201.593 20.4348 201.995 19.4393C202.595 18.243 202.895 17.5447 202.895 17.3458C203.094 18.1424 203.144 18.6916 203.045 18.9903C204.044 19.5888 204.546 20.2359 204.546 20.9346ZM204.095 21.6822C203.695 21.1824 203.094 20.7854 202.295 20.486C201.994 20.9839 201.844 21.283 201.844 21.3832C201.844 21.8807 202.194 22.1308 202.895 22.1308C203.394 22.1308 203.795 21.9813 204.095 21.6822ZM211.599 35.8879L210.548 38.28L207.997 36.9335L209.048 34.5417L211.599 35.8879Z" fill="white"/>
</g>
<defs>
<clipPath id="clip0_132_1197">
<rect width="214" height="48" fill="white"/>
</clipPath>
</defs>
</svg>
