<svg width="20" height="21" viewBox="0 0 20 21" fill="none" xmlns="http://www.w3.org/2000/svg">
<g clip-path="url(#clip0_132_1146)">
<path d="M18.3437 3.22563H13.4894C12.6779 3.22508 11.8905 3.50093 11.2568 4.00773C10.6231 4.51453 10.1809 5.22205 10.0031 6.01376C9.82487 5.22227 9.38258 4.515 8.74897 4.00827C8.11537 3.50155 7.32818 3.22554 6.51687 3.22563H1.66624C1.22421 3.2258 0.80033 3.40147 0.487766 3.71403C0.175202 4.0266 -0.000467592 4.45048 -0.00063324 4.89251V13.4275C-0.000467592 13.8695 0.175202 14.2934 0.487766 14.606C0.80033 14.9185 1.22421 15.0942 1.66624 15.0944H4.78062C8.32937 15.0944 9.38812 15.9413 9.89499 17.6988C9.91937 17.7963 10.0756 17.7963 10.1031 17.6988C10.6137 15.9419 11.6725 15.0944 15.2175 15.0944H18.3319C18.7739 15.0942 19.1978 14.9185 19.5103 14.606C19.8229 14.2934 19.9986 13.8695 19.9987 13.4275V4.89626C19.9988 4.45572 19.8247 4.03302 19.5145 3.72022C19.2043 3.40743 18.783 3.22988 18.3425 3.22626L18.3437 3.22563ZM8.40249 12.4406C8.40266 12.4566 8.39964 12.4724 8.3936 12.4872C8.38757 12.502 8.37864 12.5154 8.36735 12.5267C8.35606 12.538 8.34263 12.547 8.32784 12.553C8.31305 12.559 8.29721 12.562 8.28124 12.5619H2.71499C2.69905 12.562 2.68324 12.5589 2.66849 12.5528C2.65375 12.5468 2.64035 12.5378 2.62907 12.5266C2.61779 12.5153 2.60887 12.5019 2.6028 12.4871C2.59674 12.4724 2.59366 12.4566 2.59374 12.4406V11.6456C2.59374 11.58 2.64562 11.5244 2.71499 11.5244H8.28437C8.34999 11.5244 8.40562 11.5763 8.40562 11.6456V12.4406H8.40249ZM8.40249 10.3263C8.40257 10.3422 8.3995 10.358 8.39343 10.3728C8.38737 10.3875 8.37844 10.4009 8.36716 10.4122C8.35589 10.4235 8.34249 10.4324 8.32774 10.4384C8.31299 10.4445 8.29719 10.4476 8.28124 10.4475H2.71499C2.69905 10.4476 2.68324 10.4445 2.66849 10.4384C2.65375 10.4324 2.64035 10.4235 2.62907 10.4122C2.61779 10.4009 2.60887 10.3875 2.6028 10.3728C2.59674 10.358 2.59366 10.3422 2.59374 10.3263V9.53126C2.59374 9.46501 2.64562 9.41001 2.71499 9.41001H8.28437C8.34999 9.41001 8.40562 9.46188 8.40562 9.53126V10.3263H8.40249ZM8.40249 8.21188C8.40257 8.22783 8.3995 8.24363 8.39343 8.25838C8.38737 8.27313 8.37844 8.28653 8.36716 8.2978C8.35589 8.30908 8.34249 8.31801 8.32774 8.32407C8.31299 8.33014 8.29719 8.33322 8.28124 8.33313H2.71499C2.69905 8.33322 2.68324 8.33014 2.66849 8.32407C2.65375 8.31801 2.64035 8.30908 2.62907 8.2978C2.61779 8.28653 2.60887 8.27313 2.6028 8.25838C2.59674 8.24363 2.59366 8.22783 2.59374 8.21188V7.41688C2.59374 7.35126 2.64562 7.29563 2.71499 7.29563H8.28437C8.34999 7.29563 8.40562 7.34751 8.40562 7.41688V8.21188H8.40249ZM17.4062 12.4375C17.4063 12.4535 17.4032 12.4693 17.3972 12.484C17.3911 12.4988 17.3822 12.5122 17.3709 12.5234C17.3596 12.5347 17.3462 12.5436 17.3315 12.5497C17.3167 12.5558 17.3009 12.5588 17.285 12.5588H11.7187C11.7028 12.5588 11.687 12.5558 11.6722 12.5497C11.6575 12.5436 11.6441 12.5347 11.6328 12.5234C11.6215 12.5122 11.6126 12.4988 11.6066 12.484C11.6005 12.4693 11.5974 12.4535 11.5975 12.4375V11.6425C11.5975 11.5769 11.6494 11.5213 11.7187 11.5213H17.2881C17.3544 11.5213 17.4094 11.5731 17.4094 11.6425V12.4375H17.4062ZM17.4062 10.3231C17.4064 10.3391 17.4034 10.3549 17.3974 10.3697C17.3913 10.3845 17.3824 10.3979 17.3711 10.4092C17.3598 10.4205 17.3464 10.4295 17.3316 10.4355C17.3168 10.4415 17.301 10.4445 17.285 10.4444H11.7187C11.7028 10.4445 11.687 10.4414 11.6722 10.4353C11.6575 10.4293 11.6441 10.4203 11.6328 10.4091C11.6215 10.3978 11.6126 10.3844 11.6066 10.3696C11.6005 10.3549 11.5974 10.3391 11.5975 10.3231V9.52813C11.5975 9.46251 11.6494 9.40688 11.7187 9.40688H17.2881C17.3544 9.40688 17.4094 9.45876 17.4094 9.52813V10.3231H17.4062ZM17.4062 8.20813C17.4063 8.22408 17.4032 8.23988 17.3972 8.25463C17.3911 8.26938 17.3822 8.28278 17.3709 8.29405C17.3596 8.30533 17.3462 8.31426 17.3315 8.32032C17.3167 8.32639 17.3009 8.32947 17.285 8.32938H11.7187C11.7028 8.32947 11.687 8.32639 11.6722 8.32032C11.6575 8.31426 11.6441 8.30533 11.6328 8.29405C11.6215 8.28278 11.6126 8.26938 11.6066 8.25463C11.6005 8.23988 11.5974 8.22408 11.5975 8.20813V7.41626C11.5975 7.35063 11.6494 7.29501 11.7187 7.29501H17.2881C17.3544 7.29501 17.4094 7.34688 17.4094 7.41626V8.20813H17.4062Z" fill="white"/>
</g>
<defs>
<clipPath id="clip0_132_1146">
<rect width="20" height="20" fill="white" transform="translate(0 0.5)"/>
</clipPath>
</defs>
</svg>
