<svg width="33" height="32" viewBox="0 0 33 32" fill="none" xmlns="http://www.w3.org/2000/svg">
<g clip-path="url(#clip0_1102_1681)">
<path d="M29.6631 3H28.8994C27.6529 3 26.5438 3.59922 25.8464 4.52344H25.8443C24.5963 4.52344 23.4864 5.12367 22.7893 6.04941V6.04688C20.6834 6.04688 18.9705 7.75556 18.9705 9.85547V13.5192L16.6284 15.8229L14.2862 13.5192V9.85547C14.2862 7.75556 12.5733 6.04688 10.4674 6.04688V6.04941C9.77029 5.12367 8.66045 4.52344 7.41237 4.52344H7.41034C6.71293 3.59922 5.6038 3 4.35735 3H3.5936V14.9651L9.00511 21.3828H8.17613V29H25.0806V21.3828H24.2516L29.6631 14.9651V3ZM12.7587 9.85547V12.164C12.2927 11.8835 11.7718 11.706 11.2312 11.6435V8.33203C11.2312 8.11062 11.2109 7.89328 11.1746 7.68203C12.0928 7.98012 12.7587 8.84137 12.7587 9.85547ZM8.17613 6.17738C9.06514 6.49182 9.70364 7.3388 9.70364 8.33203V11.7709C9.34002 11.8771 8.99437 12.037 8.67817 12.2452L8.17613 11.745V6.17738ZM15.8646 27.4766H9.70364V22.9062H15.8646V27.4766ZM15.8646 21.3828H11.001L5.12111 14.4101V4.654C6.01012 4.96828 6.64862 5.81531 6.64862 6.80859V12.3763L11.4547 17.1695L12.5351 16.0925L9.79575 13.3604C10.1002 13.2145 10.4358 13.138 10.7836 13.138C11.3957 13.138 11.971 13.3756 12.4038 13.8073L15.8646 17.2112V21.3828ZM23.5531 8.33203C23.5531 7.3388 24.1916 6.49182 25.0806 6.17738V11.745L24.5785 12.2452C24.2623 12.037 23.9167 11.8771 23.5531 11.7709V8.33203ZM20.498 9.85547C20.498 8.84142 21.1639 7.98012 22.0821 7.68203C22.0449 7.89672 22.026 8.11416 22.0256 8.33203V11.6435C21.4849 11.706 20.964 11.8835 20.498 12.164V9.85547ZM23.5531 27.4766H17.3921V22.9062H23.5531V27.4766ZM28.1356 14.4101L22.2557 21.3828H17.3921V17.2112L20.8529 13.8073C21.2857 13.3756 21.861 13.138 22.4731 13.138C22.8209 13.138 23.1565 13.2145 23.461 13.3604L20.7216 16.0924L21.802 17.1695L26.6081 12.3763V6.80859C26.6081 5.81536 27.2466 4.96838 28.1356 4.65395V14.4101Z" fill="#A19CC5"/>
<path d="M20.498 24.4297H22.0256V25.9531H20.498V24.4297Z" fill="#A19CC5"/>
<path d="M11.2311 24.4297H12.7587V25.9531H11.2311V24.4297Z" fill="#A19CC5"/>
</g>
<defs>
<clipPath id="clip0_1102_1681">
<rect width="26.0695" height="26" fill="white" transform="translate(3.5936 3)"/>
</clipPath>
</defs>
</svg>
