<svg width="33" height="32" viewBox="0 0 33 32" fill="none" xmlns="http://www.w3.org/2000/svg">
<path d="M13.9517 22.0473H18.5247C18.6736 20.6163 19.365 19.4353 20.4874 18.146C20.6149 18.0007 21.4259 17.1138 21.5218 16.9876C22.3185 15.9371 22.8179 14.6705 22.9624 13.3336C23.1069 11.9967 22.8907 10.6439 22.3387 9.43095C21.7867 8.21804 20.9214 7.19434 19.8423 6.47775C18.7632 5.76117 17.5143 5.38083 16.2394 5.38054C14.9645 5.38026 13.7155 5.76003 12.6361 6.47613C11.5567 7.19223 10.6909 8.21554 10.1385 9.4282C9.58597 10.6409 9.36925 11.9936 9.51324 13.3305C9.65723 14.6675 10.1561 15.9343 10.9524 16.9852C11.0494 17.1126 11.8627 18.0007 11.9879 18.1448C13.1114 19.4353 13.8028 20.6163 13.9517 22.0473ZM18.4942 24.4284H13.9822V25.6189H18.4942V24.4284ZM9.19267 18.4757C8.1303 17.0748 7.4645 15.3857 7.27197 13.6028C7.07944 11.82 7.368 10.0161 8.10443 8.39876C8.84085 6.78146 9.99517 5.41663 11.4344 4.46148C12.8737 3.50632 14.5393 2.99971 16.2394 3C17.9396 3.00029 19.605 3.50746 21.044 4.4631C22.4829 5.41874 23.6368 6.78396 24.3728 8.40151C25.1087 10.0191 25.3967 11.8231 25.2037 13.6059C25.0106 15.3886 24.3443 17.0776 23.2815 18.4781C22.5821 19.3972 20.7502 20.8568 20.7502 22.6426V25.6189C20.7502 26.2504 20.5125 26.8561 20.0895 27.3026C19.6664 27.7491 19.0926 28 18.4942 28H13.9822C13.3839 28 12.81 27.7491 12.3869 27.3026C11.9639 26.8561 11.7262 26.2504 11.7262 25.6189V22.6426C11.7262 20.8568 9.89316 19.3972 9.19267 18.4757ZM17.3662 12.5278H20.1862L15.1102 19.671V14.9089H12.2902L17.3662 7.76094V12.529V12.5278Z" fill="#A19CC5"/>
</svg>
