<svg width="173" height="97" viewBox="0 0 173 97" fill="none" xmlns="http://www.w3.org/2000/svg">
<path opacity="0.25" d="M103.035 126C152.14 126 191.947 116.731 191.947 105.297C191.947 93.8634 152.14 84.5944 103.035 84.5944C53.931 84.5944 14.1241 93.8634 14.1241 105.297C14.1241 116.731 53.931 126 103.035 126Z" fill="#042030"/>
<path d="M172.667 5.38681L103.035 29.1985L33.3329 5.38681L0 53.8582L103.035 89.1165L206 53.8582L172.667 5.38681Z" fill="#4E2999"/>
<path opacity="0.45" d="M12.1467 51.8798L97.5975 84.5944L68.2194 55.4833C68.2194 55.4833 19.9856 43.8247 12.1467 51.8798Z" fill="#240F4F"/>
<path opacity="0.45" d="M193.924 51.8798L108.473 84.5944L137.851 55.4833C137.781 55.4833 186.014 43.8247 193.924 51.8798Z" fill="#240F4F"/>
<path d="M103.035 89.1165L0 53.8582V58.451L103.035 93.7093L206 58.451V53.8582L103.035 89.1165Z" fill="#994EF8"/>
<path d="M48.1632 110.314L60.0981 79.0124L98.5156 92.1548L48.1632 110.314Z" fill="#3B1E77"/>
<path opacity="0.45" d="M51.4824 101.27L98.5156 92.1548L60.0981 79.0124L51.4824 101.27Z" fill="#3B1E77"/>
<path d="M103.035 90.5297L48.1632 110.314L52.2592 114.624L103.035 96.5356L153.741 114.624L157.907 110.314L103.035 90.5297Z" fill="#994EF8"/>
<path d="M157.907 110.314L145.902 79.0124L107.484 92.1548L157.907 110.314Z" fill="#3B1E77"/>
<path opacity="0.45" d="M154.518 101.27L107.484 92.1548L145.902 79.0124L154.518 101.27Z" fill="#3B1E77"/>
<path d="M103.035 96.5356C105.102 96.5356 106.778 94.859 106.778 92.7907C106.778 90.7225 105.102 89.0459 103.035 89.0459C100.968 89.0459 99.2924 90.7225 99.2924 92.7907C99.2924 94.859 100.968 96.5356 103.035 96.5356Z" fill="white" fill-opacity="0.5"/>
<path d="M169.701 5.38681L103.035 38.5961L36.3696 5.38681C33.3329 9.41432 8.89819 50.184 8.89819 50.184C9.18068 50.184 9.39254 50.2546 9.67502 50.2546C70.9736 56.4019 87.9932 75.6915 93.6428 80.3549C99.2924 85.089 103.106 84.5944 103.106 84.5944C103.106 84.5944 106.919 85.089 112.569 80.3549C118.219 75.6915 135.238 56.4019 196.537 50.2546C196.819 50.2546 197.031 50.184 197.314 50.184C197.172 50.184 172.667 9.48497 169.701 5.38681Z" fill="#F5B304"/>
<path d="M197.172 50.184C196.89 50.184 196.678 50.2546 196.396 50.2546C135.097 56.4019 118.077 75.6915 112.428 80.3549C106.778 85.089 102.965 84.5944 102.965 84.5944C102.965 84.5944 99.1512 85.089 93.5016 80.3549C87.8519 75.6915 70.8324 56.4019 9.53378 50.2546C9.2513 50.2546 9.03944 50.184 8.75695 50.184C8.26261 50.9612 8.75695 51.5265 8.75695 51.5265C70.6911 57.5324 87.1457 76.8927 92.7954 81.6268C98.445 86.2902 102.894 85.9369 102.894 85.9369C102.894 85.9369 107.343 86.2902 112.993 81.6268C118.642 76.9634 135.097 57.6031 197.031 51.5265C197.172 51.5265 197.667 50.9612 197.172 50.184Z" fill="#994EF8"/>
<path d="M167.159 1.50062C133.049 -6.69571 102.965 21.3555 102.965 21.3555C102.965 21.3555 72.8804 -6.69571 38.7707 1.50062C38.7707 1.50062 29.0957 16.3388 15.7484 41.5637C15.7484 41.5637 82.9085 49.1241 102.965 77.3166C123.021 49.1241 190.181 41.5637 190.181 41.5637C176.834 16.3388 167.159 1.50062 167.159 1.50062Z" fill="#F5EFFB"/>
<path d="M190.181 41.5637C190.181 41.5637 123.021 49.1241 102.965 77.3166C82.9791 49.1241 15.819 41.5637 15.819 41.5637C15.819 41.5637 15.819 43.8247 12.0761 48.2762C12.0761 48.2762 73.0216 52.657 95.1964 77.9526C100.422 83.8878 102.965 83.1813 102.965 83.1813C102.965 83.1813 105.578 83.8878 110.733 77.9526C132.837 52.657 193.853 48.2762 193.853 48.2762C190.181 43.7541 190.181 41.5637 190.181 41.5637Z" fill="#DFCBF4"/>
<path d="M163.345 4.46825C163.345 4.46825 137.851 -2.03229 102.965 25.0297C68.1488 -1.96164 42.5842 4.46825 42.5842 4.46825L25.3528 37.9602C77.7532 41.5637 102.965 68.0604 102.965 68.0604C102.965 68.0604 128.176 41.5637 180.577 37.9602L163.345 4.46825ZM103.035 64.8808C103.035 64.8808 79.4481 40.7158 29.4488 35.9817L43.926 5.88141C43.926 5.88141 68.9963 1.00601 103.035 26.5842C137.074 1.00601 162.145 5.88141 162.145 5.88141L176.622 35.9817C126.623 40.7158 103.035 64.8808 103.035 64.8808Z" fill="#863ED5"/>
<path opacity="0.2" d="M109.462 50.2502C118.878 43.3022 148.303 27.9267 168.077 30.0464" stroke="#863ED5" stroke-width="3" stroke-linecap="round"/>
<path opacity="0.2" d="M109.462 30.753C117.819 24.2063 139.546 11.3792 159.602 12.4444" stroke="#863ED5" stroke-width="3" stroke-linecap="round"/>
<path opacity="0.2" d="M109.462 40.6451C118.525 33.5948 142.088 19.781 163.84 20.9282" stroke="#863ED5" stroke-width="3" stroke-linecap="round"/>
<path opacity="0.2" d="M97.4563 50.2502C88.0402 43.3022 58.615 27.9267 38.8413 30.0464" stroke="#863ED5" stroke-width="3" stroke-linecap="round"/>
<path opacity="0.2" d="M97.4563 30.753C89.0995 24.2063 67.372 11.3792 47.3157 12.4444" stroke="#863ED5" stroke-width="3" stroke-linecap="round"/>
<path opacity="0.2" d="M97.4563 40.6451C88.3933 33.5948 64.8296 19.781 43.0785 20.9282" stroke="#863ED5" stroke-width="3" stroke-linecap="round"/>
<path d="M103.035 21.3555C103.035 21.3555 103.742 18.8825 105.083 19.5891C105.083 19.5891 104.236 59.6521 105.648 75.2676C106.001 79.1538 109.391 84.4531 110.733 86.4315H108.967L108.473 88.0567C108.473 88.0567 103.247 79.2244 103.035 75.7622C101.976 60.2174 102.541 25.1004 103.035 21.3555Z" fill="#54DAF5"/>
</svg>
