<svg width="33" height="32" viewBox="0 0 33 32" fill="none" xmlns="http://www.w3.org/2000/svg">
<g clip-path="url(#clip0_1102_1673)">
<path d="M24.4934 4.21758L21.5161 5.40539L20.9341 4.07812L19.6132 4.22086C18.2877 4.36354 17.1335 4.84118 16.0297 5.71044C14.9258 4.83905 13.7796 4.36184 12.4724 4.2208L11.151 4.07812L10.5695 5.40539L7.59153 4.21758L2.00534 17.2173L5.34099 18.486V27.9215L16.0291 22.5918L26.7171 27.9215V18.4947L30.0802 17.2177L24.4934 4.21758ZM6.98534 25.2681V19.1119L13.988 21.7762L6.98534 25.2681ZM15.207 20.4844L4.19118 16.2933L8.47078 6.33415L9.90995 6.90864L6.23395 15.2935L15.2069 18.7352L15.207 20.4844ZM15.207 16.9778L9.01441 14.6027C10.0723 14.0635 11.3286 13.9936 12.4751 14.4589L15.2069 15.6516L15.207 16.9778ZM15.207 13.8614L13.1066 12.9446C11.8054 12.4133 10.4018 12.3767 9.12797 12.7856L12.1742 5.83835C12.3434 5.88134 13.6483 5.83988 15.207 7.159V13.8614ZM16.8511 7.16004C18.3807 5.87215 19.8246 5.86039 19.9113 5.83841L22.945 12.7587C21.7447 12.3772 20.4396 12.4286 19.1751 12.9446L16.8511 13.8937V7.16004ZM16.8511 15.6659L19.7978 14.4626C20.912 14.0073 22.0747 14.0669 23.0838 14.5961L16.8511 16.9795V15.6659ZM25.0728 25.2681L18.0718 21.7768L25.0728 19.1188V25.2681ZM16.8511 20.4855V18.7356L25.8515 15.2941L22.1749 6.90864L23.6143 6.3342L27.8939 16.2929L16.8511 20.4855Z" fill="#A44AFF"/>
</g>
<defs>
<clipPath id="clip0_1102_1673">
<rect width="28.0749" height="28" fill="white" transform="translate(2.00534 2)"/>
</clipPath>
</defs>
</svg>
