<svg width="314" height="365" viewBox="0 0 314 365" fill="none" xmlns="http://www.w3.org/2000/svg">
<g style="mix-blend-mode:soft-light" opacity="0.5">
<path d="M-14 143.07H92.3C92.3 143.07 84.7 119.77 71.9 123.17C59.1 126.47 59.6 129.37 59.6 129.37C59.6 129.37 55.8 109.47 38.7 112.27C21.6 115.07 17.8 128.87 17.8 128.87C17.8 128.87 6.90001 124.57 2.10001 128.87C-2.59999 133.17 -1.69998 135.47 -1.69998 135.47C-1.69998 135.47 -12.1 130.77 -14 143.07Z" fill="white"/>
</g>
<g style="mix-blend-mode:soft-light" opacity="0.8">
<path d="M267 100.216C265.8 96.8161 263.1 90.9161 258.9 89.5161C252.9 87.5161 244 94.1161 244 94.1161C244 94.1161 239.7 78.6161 225.3 78.0161C210.9 77.4161 213.5 93.8161 213.5 93.8161C213.5 93.8161 209.8 92.7161 202.3 90.4161C194.8 88.1161 192.2 95.0161 192.2 95.0161C187.5 93.3161 185.6 97.8161 185 100.216H267Z" fill="white"/>
</g>
<path d="M43.7 0C43.7 0 43.5 2.6 41 2.9C43.5 3.2 43.7 5.8 43.7 5.8C43.7 5.8 43.9 3.2 46.4 2.9C43.9 2.7 43.7 0 43.7 0Z" fill="#FFD08A"/>
<path d="M177.7 41C177.7 41 177.5 43.6 175 43.9C177.5 44.2 177.7 46.8 177.7 46.8C177.7 46.8 177.9 44.2 180.4 43.9C177.9 43.7 177.7 41 177.7 41Z" fill="#FFD08A"/>
<path d="M79.7 31C79.7 31 79.5 33.6 77 33.9C79.5 34.2 79.7 36.8 79.7 36.8C79.7 36.8 79.9 34.2 82.4 33.9C79.9 33.7 79.7 31 79.7 31Z" fill="#FFD08A"/>
<path d="M299.7 100C299.7 100 299.5 102.6 297 102.9C299.5 103.2 299.7 105.8 299.7 105.8C299.7 105.8 299.9 103.2 302.4 102.9C299.8 102.7 299.7 100 299.7 100Z" fill="#FFD08A"/>
<path d="M183.3 159.6C183.3 159.6 183.1 162.2 180.6 162.5C183.1 162.8 183.3 165.4 183.3 165.4C183.3 165.4 183.5 162.8 186 162.5C183.4 162.3 183.3 159.6 183.3 159.6Z" fill="#FFD08A"/>
<path d="M139.1 70C139.1 70 138.6 77 132 77.6C138.6 78.3 139.1 85.2 139.1 85.2C139.1 85.2 139.6 78.2 146.2 77.6C139.6 77 139.1 70 139.1 70Z" fill="#FFD08A"/>
<path d="M15.1 58.7C15.1 58.7 14.6 65.7 8 66.3C14.6 67 15.1 73.9 15.1 73.9C15.1 73.9 15.6 66.9 22.2 66.3C15.6 65.7 15.1 58.7 15.1 58.7Z" fill="#FFD08A"/>
<path d="M132.2 0C132.2 0 131.8 5.1 127 5.6C131.8 6.1 132.2 11.2 132.2 11.2C132.2 11.2 132.6 6.1 137.4 5.6C132.6 5 132.2 0 132.2 0Z" fill="#FFD08A"/>
<path d="M58.6 95C58.6 95 58.3 99.5 54 100C58.3 100.4 58.6 105 58.6 105C58.6 105 58.9 100.5 63.2 100C59 99.5 58.6 95 58.6 95Z" fill="#FFD08A"/>
<path d="M99.5 194.9C99.5 194.9 99.2 199.4 94.9 199.9C99.2 200.3 99.5 204.9 99.5 204.9C99.5 204.9 99.8 200.4 104.1 199.9C99.8 199.4 99.5 194.9 99.5 194.9Z" fill="#FFD08A"/>
<g style="mix-blend-mode:soft-light" opacity="0.5">
<path d="M237.8 168.5H344.1C344.1 168.5 336.5 145.2 323.7 148.6C310.9 151.9 311.4 154.8 311.4 154.8C311.4 154.8 307.6 134.9 290.5 137.7C273.4 140.5 269.6 154.3 269.6 154.3C269.6 154.3 258.7 150 253.9 154.3C249.2 158.6 250.1 160.9 250.1 160.9C250.1 160.9 239.7 156.2 237.8 168.5Z" fill="white"/>
</g>
<path opacity="0.25" d="M158.9 364.8C228.433 364.8 284.8 351.682 284.8 335.5C284.8 319.318 228.433 306.2 158.9 306.2C89.3674 306.2 33 319.318 33 335.5C33 351.682 89.3674 364.8 158.9 364.8Z" fill="#042030"/>
<path d="M257.5 194.1L158.9 227.8L60.2 194.1L13 262.7L158.9 312.6L304.7 262.7L257.5 194.1Z" fill="#4E2999"/>
<path opacity="0.45" d="M30.2 259.9L151.2 306.2L109.6 265C109.6 265 41.3 248.5 30.2 259.9Z" fill="#240F4F"/>
<path opacity="0.45" d="M287.6 259.9L166.6 306.2L208.2 265C208.1 265 276.4 248.5 287.6 259.9Z" fill="#240F4F"/>
<path d="M158.9 312.6L13 262.7V269.2L158.9 319.1L304.7 269.2V262.7L158.9 312.6Z" fill="#994EF8"/>
<path d="M81.2 342.6L98.1 298.3L152.5 316.9L81.2 342.6Z" fill="#3B1E77"/>
<path opacity="0.45" d="M85.9 329.8L152.5 316.9L98.1 298.3L85.9 329.8Z" fill="#3B1E77"/>
<path d="M158.9 314.6L81.2 342.6L87 348.7L158.9 323.1L230.7 348.7L236.6 342.6L158.9 314.6Z" fill="#994EF8"/>
<path d="M236.6 342.6L219.6 298.3L165.2 316.9L236.6 342.6Z" fill="#3B1E77"/>
<path opacity="0.45" d="M231.8 329.8L165.2 316.9L219.6 298.3L231.8 329.8Z" fill="#3B1E77"/>
<path d="M158.9 323.1C161.827 323.1 164.2 320.727 164.2 317.8C164.2 314.873 161.827 312.5 158.9 312.5C155.973 312.5 153.6 314.873 153.6 317.8C153.6 320.727 155.973 323.1 158.9 323.1Z" fill="white" fill-opacity="0.5"/>
<path d="M253.3 194.1L158.9 241.1L64.5 194.1C60.2 199.8 25.6 257.5 25.6 257.5C26 257.5 26.3 257.6 26.7 257.6C113.5 266.3 137.6 293.6 145.6 300.2C153.6 306.9 159 306.2 159 306.2C159 306.2 164.4 306.9 172.4 300.2C180.4 293.6 204.5 266.3 291.3 257.6C291.7 257.6 292 257.5 292.4 257.5C292.2 257.5 257.5 199.9 253.3 194.1Z" fill="#F5B304"/>
<path d="M292.2 257.5C291.8 257.5 291.5 257.6 291.1 257.6C204.3 266.3 180.2 293.6 172.2 300.2C164.2 306.9 158.8 306.2 158.8 306.2C158.8 306.2 153.4 306.9 145.4 300.2C137.4 293.6 113.3 266.3 26.5 257.6C26.1 257.6 25.8 257.5 25.4 257.5C24.7 258.6 25.4 259.4 25.4 259.4C113.1 267.9 136.4 295.3 144.4 302C152.4 308.6 158.7 308.1 158.7 308.1C158.7 308.1 165 308.6 173 302C181 295.4 204.3 268 292 259.4C292.2 259.4 292.9 258.6 292.2 257.5Z" fill="#994EF8"/>
<path d="M249.7 188.6C201.4 177 158.8 216.7 158.8 216.7C158.8 216.7 116.2 177 67.9 188.6C67.9 188.6 54.2 209.6 35.3 245.3C35.3 245.3 130.4 256 158.8 295.9C187.2 256 282.3 245.3 282.3 245.3C263.4 209.6 249.7 188.6 249.7 188.6Z" fill="#F5EFFB"/>
<path d="M282.3 245.3C282.3 245.3 187.2 256 158.8 295.9C130.5 256 35.4 245.3 35.4 245.3C35.4 245.3 35.4 248.5 30.1 254.8C30.1 254.8 116.4 261 147.8 296.8C155.2 305.2 158.8 304.2 158.8 304.2C158.8 304.2 162.5 305.2 169.8 296.8C201.1 261 287.5 254.8 287.5 254.8C282.3 248.4 282.3 245.3 282.3 245.3Z" fill="#DFCBF4"/>
<path d="M244.3 192.8C244.3 192.8 208.2 183.6 158.8 221.9C109.5 183.7 73.3 192.8 73.3 192.8L48.9 240.2C123.1 245.3 158.8 282.8 158.8 282.8C158.8 282.8 194.5 245.3 268.7 240.2L244.3 192.8ZM158.9 278.3C158.9 278.3 125.5 244.1 54.7 237.4L75.2 194.8C75.2 194.8 110.7 187.9 158.9 224.1C207.1 187.9 242.6 194.8 242.6 194.8L263.1 237.4C192.3 244.1 158.9 278.3 158.9 278.3Z" fill="#863ED5"/>
<path opacity="0.2" d="M168 257.594C181.333 247.76 223 226 251 229" stroke="#863ED5" stroke-width="3" stroke-linecap="round"/>
<path opacity="0.2" d="M168 230C179.833 220.735 210.6 202.581 239 204.088" stroke="#863ED5" stroke-width="3" stroke-linecap="round"/>
<path opacity="0.2" d="M168 244C180.833 234.022 214.2 214.472 245 216.095" stroke="#863ED5" stroke-width="3" stroke-linecap="round"/>
<path opacity="0.2" d="M151 257.594C137.667 247.76 96 226 68 229" stroke="#863ED5" stroke-width="3" stroke-linecap="round"/>
<path opacity="0.2" d="M151 230C139.167 220.735 108.4 202.581 80 204.088" stroke="#863ED5" stroke-width="3" stroke-linecap="round"/>
<path opacity="0.2" d="M151 244C138.167 234.022 104.8 214.472 74 216.095" stroke="#863ED5" stroke-width="3" stroke-linecap="round"/>
<path d="M158.9 216.7C158.9 216.7 159.9 213.2 161.8 214.2C161.8 214.2 160.6 270.9 162.6 293C163.1 298.5 167.9 306 169.8 308.8H167.3L166.6 311.1C166.6 311.1 159.2 298.6 158.9 293.7C157.4 271.7 158.2 222 158.9 216.7Z" fill="#54DAF5"/>
</svg>
